<svg width="48" height="48" viewBox="0 0 48 48" fill="none" xmlns="http://www.w3.org/2000/svg">
<path d="M12.8 0.5H35.2C37.4485 0.5 39.1047 0.500389 40.4137 0.607333C41.7168 0.7138 42.6315 0.923377 43.4049 1.31745C44.8161 2.0365 45.9635 3.18386 46.6825 4.59507C47.0766 5.36848 47.2862 6.28324 47.3927 7.58633C47.4996 8.89526 47.5 10.5515 47.5 12.8V35.2C47.5 37.4484 47.4996 39.1047 47.3927 40.4137C47.2862 41.7168 47.0766 42.6315 46.6825 43.4049C45.9635 44.8161 44.8161 45.9635 43.4049 46.6825C42.6315 47.0766 41.7168 47.2862 40.4137 47.3927C39.1047 47.4996 37.4485 47.5 35.2 47.5H12.8C10.5515 47.5 8.89526 47.4996 7.58633 47.3927C6.28324 47.2862 5.36848 47.0766 4.59507 46.6825C3.18386 45.9635 2.0365 44.8161 1.31745 43.4049C0.923378 42.6315 0.7138 41.7168 0.607333 40.4137C0.500389 39.1047 0.5 37.4484 0.5 35.2V12.8C0.5 10.5515 0.500389 8.89526 0.607333 7.58633C0.7138 6.28324 0.923377 5.36848 1.31745 4.59507C2.0365 3.18386 3.18386 2.0365 4.59507 1.31745C5.36848 0.923377 6.28324 0.7138 7.58633 0.607333C8.89526 0.500389 10.5515 0.5 12.8 0.5Z" fill="black" stroke="black"/>
<path d="M23.0171 29.9688H13.0173L29.2249 15.9922H36.775L23.0171 29.9688ZM12.1719 9.26068L37.4688 6.4875V13.7601H12.1719V9.26068ZM37.4688 34.5051V39.1328H12.1719V31.8575L37.4688 34.5051Z" fill="#FAFAFA" stroke="black"/>
</svg>
