<svg width="48" height="48" viewBox="0 0 48 48" fill="none" xmlns="http://www.w3.org/2000/svg">
<path d="M0 12.8C0 8.31958 0 6.07937 0.871948 4.36808C1.63893 2.86278 2.86278 1.63893 4.36808 0.871948C6.07937 0 8.31958 0 12.8 0H35.2C39.6804 0 41.9206 0 43.6319 0.871948C45.1372 1.63893 46.3611 2.86278 47.128 4.36808C48 6.07937 48 8.31958 48 12.8V35.2C48 39.6804 48 41.9206 47.128 43.6319C46.3611 45.1372 45.1372 46.361 43.6319 47.128C41.9206 48 39.6804 48 35.2 48H12.8C8.31958 48 6.07937 48 4.36808 47.128C2.86278 46.361 1.63893 45.1372 0.871948 43.6319C0 41.9206 0 39.6804 0 35.2V12.8Z" fill="white"/>
<path d="M23.0171 29.9688H13.0173L29.2249 15.9922H36.775L23.0171 29.9688ZM37.4688 34.5051V39.1328H12.1719V31.8575L37.4688 34.5051ZM12.1719 9.26068L37.4688 6.4875V13.7601H12.1719V9.26068Z" fill="black" stroke="black"/>
</svg>
